<?xml version="1.0" encoding="UTF-8"?>
<svg width="39px" height="39px" viewBox="0 0 39 39" version="1.1" xmlns="http://www.w3.org/2000/svg" xmlns:xlink="http://www.w3.org/1999/xlink">
    <title>API</title>
    <g id="生产" stroke="none" stroke-width="1" fill="none" fill-rule="evenodd">
        <g id="生产2" transform="translate(-2112.000000, -769.000000)" fill="#FFFFFF" fill-rule="nonzero">
            <path d="M2142,782 L2144,782 L2144,795 L2142,795 L2142,782 Z M2134.91774,782.00798 L2130,782.00798 L2130,795 L2132.19263,795 L2132.19263,789.812761 L2134.91775,789.812761 L2134.91775,789.812761 C2137.03259,789.950665 2138.8567,788.315297 2138.99203,786.160068 C2139.12735,784.004839 2137.52263,782.145903 2135.40779,782.00798 C2135.24461,781.99734 2135.08093,781.99734 2134.91775,782.00798 L2134.91774,782.00798 Z M2135.11828,787 L2132,787 L2132,784 L2135.11828,784 L2135.11828,784 C2136.15753,784 2137,784.671571 2137,785.5 C2137,786.328429 2136.15753,787 2135.11828,787 L2135.11828,787 Z M2124.23222,782 L2121.83222,782 L2117,795 L2119.46443,795 L2120.96242,790.895594 L2125.10201,790.895594 L2126.6,795 L2129,795 L2124.16778,782 L2124.23222,782 Z M2124,788 L2122,788 L2123.07895,785 L2124,788 Z M2131.5,769 L2131.5,769 C2120.73044,769 2112,777.730439 2112,788.5 C2112,799.269561 2120.73044,808 2131.5,808 C2142.26956,808 2151,799.269561 2151,788.5 L2151,788.5 C2151,777.73044 2142.26956,769 2131.5,769 L2131.5,769 Z M2131.5,805 L2131.5,805 C2122.38733,805 2115,797.612711 2115,788.5 C2115,779.387328 2122.38729,772 2131.5,772 C2140.61267,772 2148,779.387289 2148,788.5 L2148,788.5 C2148,797.612672 2140.61271,805 2131.5,805 C2131.5,805 2131.5,805 2131.5,805 L2131.5,805 Z" id="API"></path>
        </g>
    </g>
</svg>