<?xml version="1.0" encoding="UTF-8"?>
<svg width="36px" height="33px" viewBox="0 0 36 33" version="1.1" xmlns="http://www.w3.org/2000/svg" xmlns:xlink="http://www.w3.org/1999/xlink">
    <title>cctv</title>
    <g id="生产" stroke="none" stroke-width="1" fill="none" fill-rule="evenodd">
        <g id="生产2" transform="translate(-1293.000000, -44.000000)" fill="#FFFFFF" fill-rule="nonzero">
            <g id="cctv" transform="translate(1293.208955, 44.000000)">
                <path d="M34.3497863,16.5257027 L34.3497863,16.5257027 C34.1725694,16.03236 33.8195573,15.6357684 33.3693216,15.4241936 L31.3461405,14.4664157 C32.5875836,13.5408645 32.3978355,11.4802884 30.9720316,10.8660473 L8.33455008,0.149375965 C7.17690738,-0.348849025 6.23894145,0.515471429 5.96000583,1.04076686 L0.253198447,11.7948211 L0.253198468,11.7948211 C-0.271362121,12.7840072 0.048112247,14.0437945 0.966761884,14.6086321 C1.0610541,14.6666083 1.15975391,14.7158459 1.26179467,14.7558131 L11.0784132,19.1334899 L8.58175979,26.2968438 L2.87315669,26.2968438 L2.87315669,23.7187067 L2.87315669,23.7187067 C2.87315669,23.1491608 2.44437098,22.6874519 1.9154378,22.6874519 L0.957718923,22.6874519 L0.957718881,22.6874519 C0.428785707,22.6874519 0,23.1491608 0,23.7187067 C0,23.7187067 0,23.7187067 0,23.7187067 L0,31.9687453 L0,31.9687452 C0,32.5382911 0.428785707,33 0.957718881,33 C0.957718881,33 0.957718881,33 0.957718881,33 L1.91543776,33 L1.91543772,33 C2.44437089,33 2.8731566,32.5382911 2.8731566,31.9687452 C2.8731566,31.9687452 2.8731566,31.9687452 2.8731566,31.9687452 L2.8731566,29.3906081 L9.57718877,29.3906081 L9.57718873,29.3906081 C10.175778,29.3906885 10.7116816,28.9910935 10.9221852,28.3877128 L13.7324915,20.3174992 L18.2768676,22.3445595 C19.0430427,22.6442679 19.7733034,22.2710826 19.9462913,22.1550664 L21.1907273,21.3171718 L29.3804209,25.19469 L29.3858081,25.1985572 L29.385808,25.1985572 C30.3239565,25.631681 31.41115,25.1720302 31.8249983,24.1673023 L34.3180602,18.0551839 L34.3180602,18.0551839 C34.5191815,17.5706875 34.5306163,17.0193883 34.3497847,16.5257041 L34.3497863,16.5257027 Z M18.8431205,19.24886 L3.28797015,12.3104486 L8.02628432,3.38300439 L28.2161955,12.9408031 L18.8431205,19.24886 Z" id="形状"></path>
            </g>
        </g>
    </g>
</svg>