<?xml version="1.0" encoding="UTF-8"?>
<svg width="33px" height="33px" viewBox="0 0 33 33" version="1.1" xmlns="http://www.w3.org/2000/svg" xmlns:xlink="http://www.w3.org/1999/xlink">
    <title>Gas Delivery</title>
    <g id="生产" stroke="none" stroke-width="1" fill="none" fill-rule="evenodd">
        <g id="生产2" transform="translate(-2115.000000, -476.000000)" fill="#FFFFFF">
            <path d="M2145.00054,509 C2152.29616,500.872368 2144.1108,493.36538 2143.14976,487.227533 C2141.31708,488.228465 2139.80749,490.320325 2139.2436,492.351287 C2138.57767,483.934466 2131.61503,482.826517 2133.61007,476 C2128.77136,478.829935 2122.00128,483.408761 2122.70835,494.731233 C2122.60687,492.066473 2119.63596,492.718396 2119.12801,488.81455 C2113.69855,496.186533 2114.04576,502.812768 2117.73033,509 L2124.05284,509 C2119.51256,500.409233 2132.63863,497.720299 2129.83284,491.812394 C2132.42471,493.326964 2136.04619,495.778274 2135.66933,501.840364 C2136.38517,500.432803 2137.26613,500.08983 2137.58648,498.671844 C2140.35278,502.429727 2140.31713,505.825448 2138.60622,509 L2145.0006,509 L2145.00054,509 Z" id="Gas-Delivery"></path>
        </g>
    </g>
</svg>