<?xml version="1.0" encoding="UTF-8"?>
<svg width="32px" height="32px" viewBox="0 0 32 32" version="1.1" xmlns="http://www.w3.org/2000/svg" xmlns:xlink="http://www.w3.org/1999/xlink">
    <title>H2S</title>
    <g id="生产" stroke="none" stroke-width="1" fill="none" fill-rule="evenodd">
        <g id="生产2" transform="translate(-2116.000000, -622.000000)" fill="#FFFFFF" fill-rule="nonzero">
            <path d="M2132,622 C2123.21743,622 2116,629.148824 2116,638 C2116,646.851176 2123.14882,654 2132,654 C2140.85118,654 2148,646.851176 2148,638 C2148,629.148824 2140.85118,622 2132,622 Z M2129.75245,643.446472 L2127.36951,643.446472 L2127.36951,638.816872 L2122.53682,638.816872 L2122.53682,643.447361 L2120.15388,643.447361 L2120.15388,632.212334 L2122.53682,632.212334 L2122.53682,636.773327 L2127.37129,636.773327 L2127.37129,632.214143 L2129.75423,632.214143 L2129.75423,643.447361 L2129.75245,643.446472 Z M2134.51835,643.651369 L2134.51835,644.604545 L2130.84283,644.604545 L2130.84283,643.650465 L2132.47659,642.084403 C2132.81688,641.744111 2133.08948,641.470616 2133.22577,641.267524 C2133.36117,641.062628 2133.42977,640.790935 2133.42977,640.586038 C2133.42977,640.041752 2133.15717,639.769159 2132.54519,639.769159 C2132.0677,639.769159 2131.59111,639.973153 2131.11452,640.382045 L2131.11452,639.36117 C2131.59111,639.019976 2132.1363,638.884581 2132.74828,638.884581 C2133.29347,638.884581 2133.77006,639.019975 2134.04265,639.29257 C2134.38294,639.565164 2134.51924,639.973152 2134.51924,640.449741 C2134.51924,641.131228 2134.11035,641.81181 2133.29347,642.560993 L2132.13629,643.650465 L2134.51924,643.650465 L2134.51835,643.651369 Z M2142.75755,642.76589 C2142.00837,643.310175 2140.91889,643.650468 2139.49003,643.650468 C2138.19566,643.650468 2137.17478,643.446474 2136.2893,643.038486 L2136.2893,640.655546 C2137.17388,641.404729 2138.19566,641.812718 2139.35283,641.812718 C2140.03431,641.812718 2140.5109,641.677323 2140.85119,641.472425 C2141.19148,641.268431 2141.32778,640.927238 2141.32778,640.587847 C2141.32778,640.315253 2141.19148,639.974059 2140.91889,639.702367 C2140.6463,639.429773 2139.96572,639.08858 2138.87624,638.612895 C2137.10709,637.863713 2136.22161,636.77424 2136.22161,635.345374 C2136.22161,634.323598 2136.6296,633.506719 2137.44648,632.893833 C2138.26335,632.280947 2139.28513,632.009255 2140.64631,632.009255 C2141.73578,632.009255 2142.68896,632.144649 2143.43814,632.417243 L2143.43814,634.663887 C2142.68896,634.119602 2141.80439,633.914704 2140.78261,633.914704 C2140.16972,633.914704 2139.69313,634.051001 2139.35284,634.254997 C2139.01255,634.459894 2138.80856,634.731586 2138.80856,635.140476 C2138.80856,635.41307 2138.94395,635.684762 2139.14885,635.957355 C2139.42144,636.229949 2139.96573,636.502542 2140.91891,636.979131 C2142.00838,637.455721 2142.82526,637.932307 2143.23415,638.476592 C2143.64214,639.020878 2143.84704,639.633764 2143.84704,640.382946 C2143.91473,641.403821 2143.50584,642.221601 2142.75756,642.765887 L2142.75755,642.76589 Z" id="H2S"></path>
        </g>
    </g>
</svg>