<?xml version="1.0" encoding="UTF-8"?>
<svg width="24px" height="24px" viewBox="0 0 24 24" version="1.1" xmlns="http://www.w3.org/2000/svg" xmlns:xlink="http://www.w3.org/1999/xlink">
    <title>Layers</title>
    <g id="2D" stroke="none" stroke-width="1" fill="none" fill-rule="evenodd">
        <g id="Layers" fill="#FFFFFF" fill-rule="nonzero">
            <path d="M24,4 L24,5 L12,9 L0,5 L0,4 L12,0 L24,4 Z M12,11.25 L3,8.25 L0,9.25 L0,10.25 L12,14.25 L24,10.25 L24,9.25 L21,8.25 L12,11.25 Z M12,15.75 L3,12.75 L0,13.75 L0,14.75 L12,18.75 L24,14.75 L24,13.75 L21,12.75 L12,15.75 Z M12,21 L3,18 L0,19 L0,20 L12,24 L24,20 L24,19 L21,18 L12,21 Z" id="形状"></path>
        </g>
    </g>
</svg>