<?xml version="1.0" encoding="UTF-8"?>
<svg width="21px" height="28px" viewBox="0 0 21 28" version="1.1" xmlns="http://www.w3.org/2000/svg" xmlns:xlink="http://www.w3.org/1999/xlink">
    <title>编组 13</title>
    <g id="3D" stroke="none" stroke-width="1" fill="none" fill-rule="evenodd">
        <g id="Warahouse" transform="translate(-1710.000000, -903.000000)" fill-rule="nonzero">
            <g id="编组-13" transform="translate(1710.000000, 903.000000)">
                <path d="M10.079799,0 C4.51328186,0 0,4.67478902 0,10.4399785 C0,16.2057193 10.079799,27.84 10.079799,27.84 C10.079799,27.84 20.16,16.2057193 20.16,10.4399785 C20.16,4.67478902 15.6467181,0 10.079799,0 L10.079799,0 Z" id="路径备份-4" fill="#EF3700" transform="translate(10.080000, 13.920000) rotate(-180.000000) translate(-10.080000, -13.920000) "></path>
                <path d="M3.36,16.8 C3.36,13.089285 6.36889922,10.08 10.0799442,10.08 C13.7913911,10.08 16.8002903,13.089285 16.8002903,16.8 C16.8002903,20.511081 13.7913911,23.52 10.0799442,23.52 C6.36889922,23.52 3.36,20.5111143 3.36,16.8 Z" id="路径备份-5" fill="#FFFFFF"></path>
            </g>
        </g>
    </g>
</svg>