<?xml version="1.0" encoding="UTF-8"?>
<svg width="28px" height="44px" viewBox="0 0 28 44" version="1.1" xmlns="http://www.w3.org/2000/svg" xmlns:xlink="http://www.w3.org/1999/xlink">
    <title>OilDelivery</title>
    <g id="生产" stroke="none" stroke-width="1" fill="none" fill-rule="evenodd">
        <g id="生产2" transform="translate(-2118.000000, -397.000000)" fill="#FFFFFF" fill-rule="nonzero">
            <path d="M2141.54008,422.015522 C2139.51553,417.168861 2136.69409,411.667227 2133.70037,407.431864 C2132.66656,405.947301 2131.5466,404.55006 2130.42664,403 C2129.82358,403.764113 2129.2636,404.484563 2128.7467,405.205017 C2125.86065,409.069251 2123.12538,414.243407 2120.88544,418.609756 C2119.95933,420.399968 2119.14089,422.233839 2118.55938,424.198701 C2117.87017,426.862182 2117.54711,430.442619 2119.22704,433.935698 C2119.70087,434.874465 2120.28239,435.72591 2120.9716,436.59918 C2122.86691,438.826026 2125.27911,440.245096 2128.05748,440.769058 C2131.39582,441.380351 2134.62648,440.79089 2137.44789,438.847856 C2140.3124,436.88299 2142.10002,434.132182 2142.76767,430.682736 C2143.39227,427.604449 2142.68152,424.788143 2141.54003,422.015509 L2141.54008,422.015522 Z M2129.383,414.288159 C2128.3626,417.598036 2127.74562,420.929695 2126.82014,424.239551 C2126.25062,426.17757 2125.96586,428.180917 2126.1557,430.206021 C2126.34554,432.29647 2125.87094,434.321591 2126.60657,436.303182 C2126.65403,436.455611 2126.70149,436.65159 2126.79641,437 C2125.56245,436.041877 2124.25729,435.475716 2123.37927,434.34339 C2122.33514,433.058634 2121.62324,431.643225 2121.26729,430.140718 C2120.74523,428.050269 2120.98253,425.95982 2122.02666,424.043557 C2123.66404,421.147415 2125.37261,418.316602 2127.05746,415.463994 C2127.88802,414.048585 2129.02707,412.437199 2129.85762,411 C2129.90508,411 2129.95254,411.021776 2130,411.021776 C2129.69151,412.067 2129.66778,413.308206 2129.38301,414.288102 L2129.383,414.288159 Z M2145.48313,403.326491 C2144.76411,401.621481 2143.75299,400.095949 2142.65199,398.5704 C2142.24755,398.031979 2141.88803,397.560858 2141.46112,397 C2141.25889,397.246777 2141.0342,397.538421 2140.85444,397.762768 C2139.82085,399.131262 2138.8322,400.567057 2138.0233,402.092589 C2137.68626,402.720752 2137.39416,403.371346 2137.19194,404.06681 C2136.96725,405.009052 2136.83243,406.287805 2137.41663,407.521694 C2137.57392,407.858208 2137.82108,408.172288 2138.04578,408.463935 C2138.71986,409.249136 2139.59616,409.765125 2140.58481,409.922167 C2141.79816,410.124076 2142.9441,409.944601 2143.95522,409.249136 C2144.98881,408.553672 2145.61795,407.566562 2145.88758,406.355109 C2146.15721,405.300699 2145.91005,404.26872 2145.48313,403.326478 L2145.48313,403.326491 Z M2140.80972,402.110822 C2140.51215,403.240862 2140.41296,403.240862 2140.15506,404.370897 C2140.0162,405.031861 2139.91701,405.692826 2139.97652,406.396434 C2140.1749,407.164007 2140.51215,407.505149 2140.98826,407.910257 C2141.0081,407.974222 2141.96032,408.720474 2142,408.848402 C2141.0081,409.25351 2139.40122,408.827081 2138.68705,407.803653 C2138.38948,407.355902 2138.17126,406.886831 2138.07208,406.375114 C2137.93321,405.671507 2137.99272,404.946576 2138.27046,404.306935 C2138.74657,403.326147 2139.22268,402.388002 2139.71863,401.428538 C2139.93685,400.938145 2140.29393,400.298499 2140.86923,400 L2140.90891,400 C2141.06761,400.618322 2140.82956,402.025537 2140.80972,402.110827 L2140.80972,402.110822 Z" id="OilDelivery"></path>
        </g>
    </g>
</svg>