<?xml version="1.0" encoding="UTF-8"?>
<svg width="32px" height="32px" viewBox="0 0 32 32" version="1.1" xmlns="http://www.w3.org/2000/svg" xmlns:xlink="http://www.w3.org/1999/xlink">
    <title>pause</title>
    <g id="安防" stroke="none" stroke-width="1" fill="none" fill-rule="evenodd">
        <g id="安防版本09.08" transform="translate(-2697.000000, -354.000000)" fill="#4FACFF" fill-rule="nonzero">
            <g id="pause" transform="translate(2693.000000, 350.000000)">
                <path d="M20,4 C28.836,4 36,11.164 36,20 C36,28.836 28.836,36 20,36 C11.164,36 4,28.836 4,20 C4,11.164 11.164,4 20,4 Z M20,6.4 C12.5,6.4 6.4,12.5 6.4,20 C6.4,27.5 12.5,33.6 20,33.6 C27.5,33.6 33.6,27.5 33.6,20 C33.6,12.5 27.5,6.4 20,6.4 Z M16.0042,26.6406 C15.3402,26.6406 14.8042,26.1026 14.8042,25.4406 L14.8042,14.5586 C14.8042,13.8966 15.3402,13.3586 16.0042,13.3586 C16.6682,13.3586 17.2042,13.8966 17.2042,14.5586 L17.2042,25.4406 C17.2042,26.1026 16.6682,26.6406 16.0042,26.6406 L16.0042,26.6406 Z M23.9964,26.6406 C23.3324,26.6406 22.7964,26.1026 22.7964,25.4406 L22.7964,14.5586 C22.7964,13.8966 23.3324,13.3586 23.9964,13.3586 C24.6604,13.3586 25.1964,13.8966 25.1964,14.5586 L25.1964,25.4406 C25.1964,26.1026 24.6604,26.6406 23.9964,26.6406 L23.9964,26.6406 Z"></path>
            </g>
        </g>
    </g>
</svg>