<?xml version="1.0" encoding="UTF-8"?>
<svg width="32px" height="32px" viewBox="0 0 32 32" version="1.1" xmlns="http://www.w3.org/2000/svg" xmlns:xlink="http://www.w3.org/1999/xlink">
    <title>play_solid</title>
    <g id="安防" stroke="none" stroke-width="1" fill="none" fill-rule="evenodd">
        <g id="安防版本09.08" transform="translate(-2697.000000, -304.000000)" fill="#4FACFF" fill-rule="nonzero">
            <g id="play_solid" transform="translate(2693.000000, 300.000000)">
                <path d="M20,4 C28.836,4 36,11.164 36,20 C36,28.836 28.836,36 20,36 C11.164,36 4,28.836 4,20 C4,11.164 11.164,4 20,4 Z M20,6.4 C12.5,6.4 6.4,12.5 6.4,20 C6.4,27.5 12.5,33.6 20,33.6 C27.5,33.6 33.6,27.5 33.6,20 C33.6,12.5 27.5,6.4 20,6.4 Z M25.3942,19.002 L17.8942,14.002 C17.5242,13.754 17.0522,13.732 16.6622,13.942 C16.2722,14.15 16.0282,14.558 16.0282,15 L16.0282,25 C16.0282,25.442 16.2722,25.85 16.6622,26.058 C16.8402,26.152 17.0342,26.2 17.2282,26.2 C17.4602,26.2 17.6922,26.132 17.8942,25.998 L25.3942,20.998 C25.7282,20.776 25.9282,20.402 25.9282,20 C25.9282,19.598 25.7282,19.224 25.3942,19.002 L25.3942,19.002 Z"></path>
            </g>
        </g>
    </g>
</svg>