<?xml version="1.0" encoding="UTF-8"?>
<svg width="24px" height="24px" viewBox="0 0 24 24" version="1.1" xmlns="http://www.w3.org/2000/svg" xmlns:xlink="http://www.w3.org/1999/xlink">
    <title>RegionsActive</title>
    <g id="2D" stroke="none" stroke-width="1" fill="none" fill-rule="evenodd">
        <g id="RegionsActive" fill="#4FACFF" fill-rule="nonzero">
            <path d="M12,0 C5.37857143,0 0,5.37857143 0,12 C0,18.6214286 5.37857143,24 12,24 C18.6214286,24 24,18.6214286 24,12 C24,5.37857143 18.6214286,0 12,0 Z M10.7571429,22.2642857 C5.67857143,21.6428571 1.75714286,17.3142857 1.75714286,12.0642857 C1.75714286,11.2714286 1.86428571,10.5 2.03571429,9.77142857 L8.18571429,15.9214286 L8.18571429,17.2071429 C8.18571429,18.6214286 9.34285714,19.7785714 10.7571429,19.7785714 L10.7571429,22.2642857 Z M19.6285714,18.9428571 C19.3071429,17.8928571 18.3428571,17.1428571 17.1857143,17.1428571 L15.9,17.1428571 L15.9,13.3071429 C15.9,12.5785714 15.3214286,12 14.5928571,12 L6.68571429,12 L6.68571429,9.42857143 L9.45,9.42857143 C10.1785714,9.42857143 10.7571429,8.85 10.7571429,8.12142857 L10.7571429,5.57142857 L13.2857143,5.57142857 C14.7214286,5.57142857 15.9,4.39285714 15.9,2.95714286 L15.9,2.46428571 C19.6714286,3.98571429 22.3285714,7.67142857 22.3285714,12 C22.3285714,14.6785714 21.3214286,17.1 19.6285714,18.9428571 Z" id="形状"></path>
        </g>
    </g>
</svg>