<?xml version="1.0" encoding="UTF-8"?>
<svg width="32px" height="32px" viewBox="0 0 32 32" version="1.1" xmlns="http://www.w3.org/2000/svg" xmlns:xlink="http://www.w3.org/1999/xlink">
    <title>repeat</title>
    <g id="安防" stroke="none" stroke-width="1" fill="none" fill-rule="evenodd">
        <g id="安防版本09.08" transform="translate(-2698.000000, -404.000000)" fill="#4FACFF" fill-rule="nonzero">
            <g id="repeat" transform="translate(2694.000000, 400.000000)">
                <path d="M19.1614,12.1094 C19.8254,12.1094 20.3614,12.6474 20.3614,13.3094 L20.3614,19.9774 L26.1334,23.3094 C26.7074,23.6414 26.9054,24.3754 26.5734,24.9474 C26.3514,25.3334 25.9494,25.5494 25.5334,25.5494 C25.3294,25.5494 25.1234,25.4974 24.9354,25.3874 L18.5614,21.7074 C18.1894,21.4934 17.9614,21.0974 17.9614,20.6694 L17.9614,13.3094 C17.9614,12.6474 18.4974,12.1094 19.1614,12.1094 Z M34.801,18.8184 C35.465,18.8184 36.001,19.3584 36.001,20.0204 C35.989,28.8364 28.813,36.0004 19.999,36.0004 L19.981,36.0004 C11.157,35.9884 3.989,28.8004 4.00098495,19.9804 C4.005,15.7064 5.675,11.6904 8.701,8.6724 C11.721,5.6584 15.733,4.0004 19.999,4.0004 L20.021,4.0004 C24.425,4.0044 28.515,5.7684 31.511,8.8904 L31.515,5.5084 C31.517,4.8464 32.053,4.3104 32.717,4.3104 C33.381,4.3104 33.917,4.8484 33.917,5.5124 L33.907,12.4104 C33.907,13.0724 33.369,13.6084 32.707,13.6084 L32.705,13.6084 L25.805,13.6004 C25.143,13.5984 24.607,13.0604 24.607,12.3984 C24.609,11.7344 25.145,11.1984 25.807,11.1984 L25.809,11.1984 L30.345,11.2064 C27.759,8.1564 24.049,6.4044 20.017,6.4004 L19.999,6.4004 C16.373,6.4004 12.963,7.8104 10.395,10.3704 C7.823,12.9364 6.405,16.3504 6.401,19.9824 C6.391,27.4804 12.483,33.5904 19.983,33.6024 L20.001,33.6024 C27.491,33.6024 33.591,27.5104 33.599,20.0184 C33.601,19.3544 34.137,18.8184 34.801,18.8184 Z"></path>
            </g>
        </g>
    </g>
</svg>