<?xml version="1.0" encoding="UTF-8"?>
<svg width="36px" height="34px" viewBox="0 0 36 34" version="1.1" xmlns="http://www.w3.org/2000/svg" xmlns:xlink="http://www.w3.org/1999/xlink">
    <title>Salt</title>
    <g id="生产" stroke="none" stroke-width="1" fill="none" fill-rule="evenodd">
        <g id="生产2" transform="translate(-2114.000000, -549.000000)" fill="#FFFFFF">
            <g id="Salt" transform="translate(2114.000000, 549.000000)">
                <path d="M34.3812275,20.5091801 L21.3682124,1.95765853 L21.3682123,1.95765847 C19.9153599,-0.113961906 17.0582268,-0.615575381 14.9865721,0.837272794 C14.550877,1.14283124 14.1717461,1.52196343 13.8661864,1.95765847 L11.5671837,5.20266225 L11.5671838,5.20266214 C10.94448,6.0911495 11.1599453,7.31621147 12.0484344,7.93891532 C12.9369217,8.56161917 14.1619837,8.34615384 14.7846876,7.45766476 C14.7846876,7.45766474 14.7846876,7.45766475 14.7846876,7.45766473 L17.0671902,4.21266095 L17.0671902,4.21266099 C17.2765845,3.91801662 17.685189,3.84890775 17.9798303,4.05830202 C18.0395617,4.10075111 18.0917404,4.15292963 18.1341893,4.21266099 L31.1637045,22.7641826 L31.1637045,22.7641826 C31.2700067,22.9077521 31.311845,23.0890499 31.2792046,23.2646832 C30.5642038,26.581187 25.2621976,30.007691 17.6171887,30.007691 C9.97217982,30.007691 4.67017365,26.581187 3.95517282,23.2646832 L3.95517279,23.264683 C3.92253262,23.0890498 3.96437061,22.907752 4.07067293,22.7641825 L10.3186802,13.8541721 L10.3186802,13.8541721 C10.9413841,12.9656847 10.7259187,11.7406227 9.83742966,11.1179189 C8.9489423,10.495215 7.72388033,10.7106804 7.10117648,11.5991694 C7.10117648,11.5991694 7.10117648,11.5991694 7.10117648,11.5991694 L0.85316921,20.5091798 L0.853169467,20.5091794 C0.121995178,21.5490029 -0.144896929,22.8456208 0.116168609,24.0896836 C1.34267004,29.7931902 8.7016786,33.9401951 17.617189,33.9401951 C26.5326993,33.9401951 33.8917079,29.7931902 35.1182093,24.0896836 L35.1182096,24.0896824 C35.379273,22.8456197 35.1123812,21.5490018 34.3812087,20.5091783 L34.3812275,20.5091801 Z" id="路径"></path>
                <path d="M15.6537057,11.1206692 L15.6537057,11.120669 C15.6537057,12.2050812 16.5327958,13.0841712 17.617208,13.0841712 C18.7016202,13.0841712 19.5807103,12.2050812 19.5807103,11.120669 C19.5807103,11.1206689 19.5807103,11.1206689 19.5807103,11.1206688 L19.5807103,11.1206688 C19.5807103,10.0362566 18.7016202,9.15716654 17.617208,9.15716654 C16.5327958,9.15716654 15.6537057,10.0362566 15.6537057,11.1206688 L15.6537057,11.1206692 Z" id="路径"></path>
                <path d="M11.9357014,17.2256763 L11.9357014,17.2256766 C11.9357014,18.3100888 12.8147915,19.1891789 13.8992037,19.1891789 C14.9836159,19.1891789 15.862706,18.3100888 15.862706,17.2256766 L15.862706,17.2256766 C15.862706,16.1412644 14.9836159,15.2621743 13.8992037,15.2621743 C12.8147915,15.2621743 11.9357014,16.1412644 11.9357014,17.2256766 L11.9357014,17.2256763 Z" id="路径"></path>
                <path d="M19.37171,17.2256763 L19.37171,17.2256761 C19.37171,18.3100883 20.2508001,19.1891783 21.3352123,19.1891783 C22.4196245,19.1891783 23.2987146,18.3100883 23.2987146,17.2256761 C23.2987146,17.225676 23.2987146,17.225676 23.2987146,17.2256759 L23.2987146,17.2256759 C23.2987146,16.1412637 22.4196245,15.2621736 21.3352123,15.2621736 C20.2508001,15.2621736 19.37171,16.1412637 19.37171,17.2256759 C19.37171,17.2256759 19.37171,17.225676 19.37171,17.225676 L19.37171,17.2256763 Z" id="路径"></path>
                <path d="M8.31119717,23.1766832 L8.31119717,23.1766835 C8.31119717,24.2610957 9.19028726,25.1401858 10.2746995,25.1401858 C11.3591117,25.1401858 12.2382017,24.2610957 12.2382017,23.1766835 L12.2382017,23.1766835 C12.2382017,22.0922713 11.3591117,21.2131812 10.2746995,21.2131812 C9.19028726,21.2131812 8.31119717,22.0922713 8.31119717,23.1766835 L8.31119717,23.1766832 Z" id="路径"></path>
                <path d="M22.9962143,23.1766832 L22.9962143,23.1766835 C22.9962143,24.2610957 23.8753043,25.1401858 24.9597165,25.1401858 C26.0441287,25.1401858 26.9232188,24.2610957 26.9232188,23.1766835 L26.9232188,23.1766835 C26.9232188,22.0922713 26.0441287,21.2131812 24.9597165,21.2131812 C23.8753043,21.2131812 22.9962143,22.0922713 22.9962143,23.1766835 C22.9962143,23.1766835 22.9962143,23.1766835 22.9962143,23.1766836 L22.9962143,23.1766832 Z" id="路径"></path>
                <path d="M15.6537057,24.4141847 L15.6537057,24.4141844 C15.6537057,25.4985966 16.5327958,26.3776867 17.617208,26.3776867 C18.7016202,26.3776867 19.5807103,25.4985966 19.5807103,24.4141844 C19.5807103,24.4141844 19.5807103,24.4141843 19.5807103,24.4141843 L19.5807103,24.4141843 C19.5807103,23.3297721 18.7016202,22.450682 17.617208,22.450682 C16.5327958,22.450682 15.6537057,23.3297721 15.6537057,24.4141843 L15.6537057,24.4141847 Z" id="路径"></path>
            </g>
        </g>
    </g>
</svg>