<?xml version="1.0" encoding="UTF-8"?>
<svg width="22px" height="22px" viewBox="0 0 22 22" version="1.1" xmlns="http://www.w3.org/2000/svg" xmlns:xlink="http://www.w3.org/1999/xlink">
    <title>Thematic Panel</title>
    <g id="2D" stroke="none" stroke-width="1" fill="none" fill-rule="evenodd">
        <path d="M9.625,10.0833333 L0.458333333,10.0833333 C0.20625,10.0833333 0,9.87708333 0,9.625 L0,0.458333333 C0,0.20625 0.20625,0 0.458333333,0 L9.625,0 C9.87708333,0 10.0833333,0.20625 10.0833333,0.458333333 L10.0833333,9.625 C10.0833333,9.87708333 9.87708333,10.0833333 9.625,10.0833333 Z M10.0833333,21.5416667 L10.0833333,12.375 C10.0833333,12.1229167 9.87708333,11.9166667 9.625,11.9166667 L0.458333333,11.9166667 C0.20625,11.9166667 0,12.1229167 0,12.375 L0,21.5416667 C0,21.79375 0.20625,22 0.458333333,22 L9.625,22 C9.87708333,22 10.0833333,21.79375 10.0833333,21.5416667 Z M20.1666667,1.83333333 L13.75,1.83333333 L13.75,8.25 L20.1666667,8.25 L20.1666667,1.83333333 M21.5416667,0 C21.79375,0 22,0.20625 22,0.458333333 L22,9.625 C22,9.87708333 21.79375,10.0833333 21.5416667,10.0833333 L12.375,10.0833333 C12.1229167,10.0833333 11.9166667,9.87708333 11.9166667,9.625 L11.9166667,0.458333333 C11.9166667,0.20625 12.1229167,0 12.375,0 L21.5416667,0 Z M22,21.5416667 L22,12.375 C22,12.1229167 21.79375,11.9166667 21.5416667,11.9166667 L12.375,11.9166667 C12.1229167,11.9166667 11.9166667,12.1229167 11.9166667,12.375 L11.9166667,21.5416667 C11.9166667,21.79375 12.1229167,22 12.375,22 L21.5416667,22 C21.79375,22 22,21.79375 22,21.5416667 Z" id="Thematic-Panel" fill="#FFFFFF" fill-rule="nonzero"></path>
    </g>
</svg>