<?xml version="1.0" encoding="UTF-8"?>
<svg width="24px" height="24px" viewBox="0 0 24 24" version="1.1" xmlns="http://www.w3.org/2000/svg" xmlns:xlink="http://www.w3.org/1999/xlink">
    <title>ToolsActive</title>
    <g id="2D" stroke="none" stroke-width="1" fill="none" fill-rule="evenodd">
        <g id="ToolsActive" fill="#4FACFF" fill-rule="nonzero">
            <path d="M12.4928571,14.9142857 C10.5857143,15.8357143 8.22857143,15.5142857 6.64285714,13.9285714 C5.22857143,12.5142857 4.82142857,10.5 5.37857143,8.74285714 C5.7,8.67857143 5.78571429,8.65714286 6.10714286,8.59285714 L7.71428571,10.3071429 L9.21428571,10.3071429 L10.2857143,9.23571429 L10.2857143,7.73571429 L8.57142857,6.12857143 C8.63571429,5.80714286 8.65714286,5.72142857 8.72142857,5.4 C10.5,4.82142857 12.5142857,5.25 13.9285714,6.64285714 C15.5142857,8.22857143 15.8357143,10.5857143 14.9357143,12.4928571 L21.6214286,19.1785714 C23.1214286,17.1857143 24,14.6785714 24,12 C24,5.37857143 18.6214286,0 12,0 C5.37857143,0 0,5.37857143 0,12 C0,18.6214286 5.37857143,24 12,24 C14.7,24 17.1857143,23.1214286 19.1785714,21.6214286 L12.4928571,14.9142857 Z" id="路径"></path>
        </g>
    </g>
</svg>