<?xml version="1.0" encoding="UTF-8"?>
<svg width="33px" height="27px" viewBox="0 0 33 27" version="1.1" xmlns="http://www.w3.org/2000/svg" xmlns:xlink="http://www.w3.org/1999/xlink">
    <title>W.C.</title>
    <g id="生产" stroke="none" stroke-width="1" fill="none" fill-rule="evenodd">
        <g id="生产2" transform="translate(-2115.000000, -697.000000)" fill="#FFFFFF" fill-rule="nonzero">
            <path d="M2143.54939,703.362571 L2148,703.362571 L2148,704.762831 L2143.54939,704.762831 L2143.54939,703.362571 Z M2134.47799,709.629923 L2138.33955,709.629923 L2138.33955,711.193374 L2134.47799,711.193374 L2134.47799,709.629923 Z M2132.80249,703.362571 L2136.3237,703.362571 L2136.3237,704.762831 L2132.80249,704.762831 L2132.80249,703.362571 Z M2146.9005,716.332351 L2147.76445,716.332351 L2147.76445,717.895801 L2146.9005,717.895801 L2146.9005,716.332351 Z M2144.29553,709.629923 L2147.76442,709.629923 L2147.76442,711.193374 L2144.29553,711.193374 L2144.29553,709.629923 Z M2141.8608,716.332351 L2145.89254,716.332351 L2145.89254,717.895801 L2141.8608,717.895801 L2141.8608,716.332351 Z M2139.42604,709.629923 L2143.20908,709.629923 L2143.20908,711.193374 L2139.42604,711.193374 L2139.42604,709.629923 Z M2137.67201,703.362571 L2141.53357,703.362571 L2141.53357,704.762831 L2137.67201,704.762831 L2137.67201,703.362571 Z M2136.99128,716.332351 L2140.85284,716.332351 L2140.85284,717.895801 L2136.99128,717.895801 L2136.99128,716.332351 Z M2133.12972,722.436549 L2137.16145,722.436549 L2137.16145,724 L2133.12972,724 L2133.12972,722.436549 Z M2138.26106,722.436549 L2142.71167,722.436549 L2142.71167,724 L2138.26106,724 L2138.26106,722.436549 Z M2143.88974,722.436549 L2147.67277,722.436549 L2147.67277,724 L2143.88974,724 L2143.88974,722.436549 Z M2131.95158,716.332351 L2135.64297,716.332351 L2135.64297,717.895801 L2131.95158,717.895801 L2131.95158,716.332351 Z M2127.76282,703.362571 L2131.45421,703.362571 L2131.45421,704.762831 L2127.76282,704.762831 L2127.76282,703.362571 Z M2115,697 L2115,723.82326 L2131.11387,723.82326 L2131.11387,723.700904 L2121.7414,697 L2115,697 Z M2129.11106,709.629923 L2133.3915,709.629923 L2133.3915,711.193374 L2129.11106,711.193374 L2129.11106,709.629923 Z" id="W.C."></path>
        </g>
    </g>
</svg>